<svg width="149" height="26" viewBox="0 0 149 26" fill="none" xmlns="http://www.w3.org/2000/svg">
<path fill-rule="evenodd" clip-rule="evenodd" d="M42.9848 15.3796V14.5781C42.9848 9.31798 39.4848 6.11182 34.6348 6.11182C29.8848 6.11182 26.4848 9.1176 26.0848 13.7265C25.9848 14.8787 25.9848 17.133 26.0848 18.5357C26.5348 22.844 29.9848 26.0001 34.8348 26.0001C37.3348 26.0001 39.2848 25.3989 40.5848 24.7978C41.8348 24.1966 42.2348 23.1947 42.2348 22.3931C42.2348 21.0405 41.1348 19.9384 39.8348 19.9384C39.3848 19.9384 38.9348 20.0386 38.2348 20.3392C37.4348 20.6398 36.4348 20.9403 35.0348 20.9403C33.0848 20.9403 31.5348 20.0887 31.5348 18.3854V18.0848H40.3848C42.2348 18.0848 42.9848 16.8825 42.9848 15.3796ZM37.4348 14.3276H31.5348C31.5348 12.2737 32.4848 10.8209 34.7348 10.8209C36.6348 10.8209 37.8348 12.0733 37.7848 13.9268C37.7848 14.2274 37.6848 14.3276 37.4348 14.3276Z" fill="#EC0047"/>
<path d="M62.5846 9.31808V22.0426C62.5846 23.0445 62.3346 23.5454 61.5846 23.9963C60.4846 24.7478 57.8346 25.9501 53.9846 25.9501C48.5346 25.9501 45.6846 23.0946 45.6846 17.9347V9.36818C45.6846 7.61481 46.6846 6.26221 48.4846 6.26221C50.1846 6.26221 51.4846 7.61481 51.4846 9.36818V17.7343C51.4846 19.4876 52.6346 20.2892 54.0846 20.2892C55.2346 20.2892 56.1346 19.9886 56.6846 19.6379V9.36818C56.6846 7.6649 57.9346 6.3123 59.5846 6.3123C61.2846 6.26221 62.5846 7.61481 62.5846 9.31808Z" fill="#EC0047"/>
<path d="M79.485 7.81509C80.135 8.36615 80.385 9.0174 80.385 9.71875C80.385 11.1715 79.235 12.2737 77.835 12.2737C77.185 12.2737 76.785 12.1234 76.085 11.8228C75.285 11.4721 74.335 11.1715 73.285 11.1715C71.885 11.1715 71.385 11.6725 71.385 12.1735C71.385 12.7245 71.885 13.0251 73.135 13.3257L75.385 13.8267C79.185 14.7284 80.985 16.5319 80.985 19.738C80.985 23.6455 77.385 25.95 73.285 25.95C69.935 25.95 67.485 24.7978 66.285 23.896C65.635 23.345 65.335 22.6436 65.335 21.8922C65.335 20.4895 66.435 19.3873 67.785 19.3873C68.485 19.3873 68.885 19.5376 69.535 19.8883C70.585 20.4394 71.685 20.9904 73.385 20.9904C74.885 20.9904 75.435 20.4394 75.435 19.8382C75.435 19.3372 75.035 18.9365 73.835 18.686L71.185 18.0848C68.535 17.4336 65.935 15.7303 65.935 12.3238C65.935 8.36615 69.435 6.11182 73.685 6.11182C75.735 6.11182 78.135 6.71297 79.485 7.81509Z" fill="#EC0047"/>
<path fill-rule="evenodd" clip-rule="evenodd" d="M99.135 22.1427V13.5762C99.135 8.41627 96.285 6.11184 90.835 6.16193C88.635 6.16193 86.785 6.6629 85.885 7.01357C84.285 7.61473 83.985 8.71684 83.985 9.56848C83.985 10.8209 85.085 11.9731 86.435 11.9731C86.935 11.9731 87.385 11.8729 87.935 11.7226C87.9999 11.7064 88.0668 11.6894 88.1354 11.6721C88.9128 11.4754 89.9161 11.2217 90.835 11.2217C92.985 11.2217 93.585 12.0232 93.585 13.2756V14.4779C92.635 14.2274 91.435 14.0271 89.935 14.0271C84.785 14.0271 82.835 16.8325 82.835 19.7881C82.835 22.9943 85.135 26.0001 90.535 26.0001C94.735 26.0001 97.135 24.7477 98.135 24.0964C98.885 23.5955 99.135 23.0945 99.135 22.1427ZM90.835 21.4914C89.535 21.4914 88.385 20.9404 88.385 19.5878C88.385 18.5858 89.135 17.6841 90.835 17.6841C91.885 17.6841 92.735 17.7843 93.635 18.0849V20.6899C93.185 20.9904 92.285 21.4914 90.835 21.4914Z" fill="#EC0047"/>
<path fill-rule="evenodd" clip-rule="evenodd" d="M108.285 6.8131V3.00578C108.285 1.3526 106.985 0 105.385 0C103.735 0 102.485 1.3526 102.485 3.00578V21.7919C102.485 22.7437 102.735 23.2447 103.485 23.7457C104.585 24.4971 107.285 26 111.135 26C116.135 26 119.385 22.6936 119.785 18.4355C119.885 17.1329 119.885 14.7283 119.785 13.3757C119.385 9.06744 116.635 6.11175 111.935 6.11175C110.735 6.11175 109.235 6.41233 108.285 6.8131ZM108.285 19.3873V12.3738C108.785 12.0732 109.985 11.6724 111.235 11.6724C113.035 11.6724 113.935 12.7245 114.035 14.4778C114.085 15.1291 114.085 16.5819 114.035 17.3834C113.885 19.237 112.835 20.289 110.985 20.289C109.985 20.289 108.785 19.7881 108.285 19.3873Z" fill="#EC0047"/>
<path d="M128.785 3.05588V22.7938C128.785 24.447 127.535 25.7996 125.885 25.7996C124.285 25.7996 122.985 24.447 122.985 22.7938V3.05588C122.985 1.3526 124.235 0 125.885 0C127.435 0 128.785 1.3526 128.785 3.05588Z" fill="#EC0047"/>
<path fill-rule="evenodd" clip-rule="evenodd" d="M148.935 15.3796V14.5781C148.935 9.31798 145.435 6.11182 140.585 6.11182C135.835 6.11182 132.435 9.1176 132.035 13.7265C131.935 14.8787 131.935 17.133 132.035 18.5357C132.485 22.844 135.935 26.0001 140.785 26.0001C143.285 26.0001 145.235 25.3989 146.535 24.7978C147.785 24.1966 148.185 23.1947 148.185 22.3931C148.185 21.0405 147.085 19.9384 145.785 19.9384C145.335 19.9384 144.885 20.0386 144.185 20.3392C143.385 20.6398 142.385 20.9403 140.985 20.9403C139.035 20.9403 137.485 20.0887 137.485 18.3854V18.0848H146.335C148.135 18.0848 148.935 16.8825 148.935 15.3796ZM143.385 14.3276H137.485C137.485 12.2737 138.435 10.8209 140.685 10.8209C142.585 10.8209 143.785 12.0733 143.735 13.9268C143.735 14.2274 143.635 14.3276 143.385 14.3276Z" fill="#EC0047"/>
<path fill-rule="evenodd" clip-rule="evenodd" d="M21.335 23.9461C20.035 25.0983 18.235 25.6994 15.835 25.6994L3.63496 25.7495C1.93496 25.7495 0.584961 24.3969 0.584961 22.6937V3.80734C0.584961 2.10407 1.93496 0.751465 3.63496 0.751465H15.035C17.435 0.751465 19.285 1.35262 20.585 2.55493C21.885 3.70715 22.535 5.21004 22.535 6.96341C22.535 8.4663 22.035 9.71871 21.135 10.7707C20.535 11.4721 19.635 12.0231 18.435 12.4239C20.235 12.8247 21.535 13.5761 22.385 14.6282C23.235 15.6802 23.635 16.9827 23.635 18.5858C23.635 19.8883 23.335 21.0405 22.735 22.0925C22.735 22.1426 22.685 22.1927 22.635 22.2428C22.335 22.844 21.885 23.4451 21.335 23.9461ZM14.785 22.343C15.485 22.343 16.185 22.1426 16.735 21.7919C17.735 21.1407 18.435 19.9885 18.285 18.5858C18.285 17.2833 17.635 16.131 16.585 15.4798C16.035 15.1291 15.335 14.9287 14.635 14.9287C14.135 14.9287 13.685 15.0289 13.235 15.2293C12.835 15.4297 12.485 15.6301 12.185 15.9307L11.985 16.131L11.685 15.9307L10.535 15.1792L9.58496 14.5781L7.53496 13.2255V13.1253C7.53496 12.975 7.53496 12.8748 7.48496 12.7245L9.68496 10.4702L10.485 9.66861C11.035 9.9191 11.635 10.0193 12.285 9.8189C13.085 9.51832 13.685 8.86707 13.835 8.01543C13.985 7.1638 13.635 6.36225 13.035 5.86129C12.635 5.51062 12.135 5.31023 11.585 5.31023C11.085 5.31023 10.635 5.46052 10.285 5.711C9.68496 6.16187 9.28496 6.81312 9.28496 7.61466C9.28496 8.06553 9.38496 8.4162 9.58496 8.76688L8.28496 10.1195L6.63496 11.8228C6.58496 11.7727 6.48496 11.7727 6.38496 11.7727H6.28496C5.53496 11.7727 4.93496 12.3738 4.93496 13.1253C4.93496 13.8767 5.53496 14.4779 6.28496 14.4779H6.38496C6.58496 14.4779 6.78496 14.4278 6.93496 14.3276L7.33496 14.5781L8.33496 15.2293L9.43496 15.9307L11.385 17.1831C11.185 17.6339 11.085 18.1349 11.085 18.6359C11.085 19.1869 11.235 19.738 11.485 20.2389C11.535 20.3892 11.585 20.5395 11.685 20.6397C12.335 21.6917 13.485 22.343 14.785 22.343Z" fill="#EC0047"/>
</svg>
